<svg id="Layer_1" data-name="Layer 1" xmlns="http://www.w3.org/2000/svg" viewBox="0 0 366.23 366.23"><defs><style>.cls-1{fill:#132f82;}.cls-2{fill:#fff;}</style></defs><rect class="cls-1" width="366.23" height="366.23" rx="7.88"/><path class="cls-2" d="M429.24,308V498.48a5.84,5.84,0,0,1-5.84,5.83H152.12a5.83,5.83,0,0,1-5.83-5.83V227.2a5.84,5.84,0,0,1,5.83-5.84H261.71a5.85,5.85,0,0,1,5.84,5.84V256a5.85,5.85,0,0,1-5.84,5.84H192.54a5.83,5.83,0,0,0-5.83,5.83V458.06a5.83,5.83,0,0,0,5.83,5.83H383a5.83,5.83,0,0,0,5.83-5.83V348.47a5.83,5.83,0,0,0-5.83-5.84H273.38a5.83,5.83,0,0,0-5.83,5.84v69.16a5.84,5.84,0,0,1-5.84,5.84H233a5.84,5.84,0,0,1-5.84-5.84V308a5.84,5.84,0,0,1,5.84-5.83H423.4A5.84,5.84,0,0,1,429.24,308Z" transform="translate(-104.64 -179.72)"/><rect class="cls-2" x="203.33" y="41.64" width="121.27" height="40.42" rx="5.84"/><rect class="cls-2" x="203.33" y="203.33" width="40.42" height="40.42" rx="5.84"/></svg>